# xmcd
# Copyright (C) 1995-1998 Ti Kan
#
# Track frame offsets:
#       150
#       23644
#       38617
#       65377
#       88301
#       113866
#       134722
#       153532
#       175984
#       198963
#       221939
#
# Disc length: 3237 seconds
#
# Revision: 0
# Processed by: cddbd v1.5.2PL0 Copyright (c) Steve Scherf et al.
# Submitted via: CD-Import v1.0
#
DISCID=9f0ca30b
DTITLE=Various Artist - Frost and Wagner Remixes
DYEAR=2008
DGENRE=
TTITLE0=Re:jazz - Torch Of Freedom
TTITLE1=Eva Be - She Walks Alone
TTITLE2=Taxi - A Certain Something
TTITLE3=Tosca - Supperob
TTITLE4=Ben Westbeech - So Good Today
TTITLE5=Kabuki - Speed Of Sound
TTITLE6=Jan Delay - Klar
TTITLE7=Matthias Vogt Trio - The Look Into Your Eyes
TTITLE8=Deyampert - The Sweetest Delusion
TTITLE9=Onejiru - We Carry On
TTITLE10=Clara Hill's Folkwaves - Everything
EXTD=
EXTT0=
EXTT1=
EXTT2=
EXTT3=
EXTT4=
EXTT5=
EXTT6=
EXTT7=
EXTT8=
EXTT9=
EXTT10=
PLAYORDER=
